<svg width="781" height="64" viewBox="0 0 781 64" fill="none" xmlns="http://www.w3.org/2000/svg">
<path d="M0 62.31L20.646 0.929999H43.431L64.17 62.31H44.64L34.596 25.11L31.992 15.066H31.806L29.295 25.017L18.972 62.31H0ZM14.787 49.569V37.293H49.476V49.569H14.787Z" fill="black"/>
<path d="M85.7082 48.081H114.91V62.31H66.7362V0.929999H85.7082V48.081Z" fill="black"/>
<path d="M139.045 48.081H168.247V62.31H120.073V0.929999H139.045V48.081Z" fill="black"/>
<path d="M218.898 0C224.726 0 229.903 0.805999 234.429 2.418C238.955 3.968 242.923 6.355 246.333 9.579L238.056 21.762C235.266 19.406 232.29 17.577 229.128 16.275C226.028 14.911 222.587 14.229 218.805 14.229C216.883 14.229 215.333 14.415 214.155 14.787C212.977 15.159 212.109 15.686 211.551 16.368C211.055 16.988 210.807 17.701 210.807 18.507C210.807 19.499 211.396 20.305 212.574 20.925C213.814 21.545 215.519 22.103 217.689 22.599L226.989 24.738C233.189 26.164 237.808 28.272 240.846 31.062C243.884 33.79 245.403 37.541 245.403 42.315C245.403 46.965 244.225 50.84 241.869 53.94C239.575 57.04 236.413 59.365 232.383 60.915C228.353 62.465 223.796 63.24 218.712 63.24C214.682 63.24 210.745 62.837 206.901 62.031C203.119 61.225 199.647 60.078 196.485 58.59C193.323 57.04 190.595 55.211 188.301 53.103L196.485 40.548C198.159 42.16 200.205 43.617 202.623 44.919C205.041 46.159 207.614 47.151 210.342 47.895C213.07 48.639 215.705 49.011 218.247 49.011C220.045 49.011 221.502 48.856 222.618 48.546C223.796 48.174 224.633 47.678 225.129 47.058C225.625 46.438 225.873 45.694 225.873 44.826C225.873 43.772 225.47 42.935 224.664 42.315C223.858 41.633 222.339 41.044 220.107 40.548L209.877 38.223C206.529 37.479 203.429 36.456 200.577 35.154C197.725 33.852 195.431 32.054 193.695 29.76C192.021 27.404 191.184 24.335 191.184 20.553C191.184 16.523 192.269 12.958 194.439 9.858C196.609 6.758 199.771 4.34 203.925 2.604C208.079 0.867999 213.07 0 218.898 0Z" fill="black"/>
<path d="M306.402 0.929999L284.919 40.548V62.31H265.854V40.548L244.278 0.929999H263.529L270.969 16.275L275.526 26.97L279.99 16.275L287.523 0.929999H306.402Z" fill="black"/>
<path d="M330.84 0C336.668 0 341.845 0.805999 346.371 2.418C350.897 3.968 354.865 6.355 358.275 9.579L349.997 21.762C347.207 19.406 344.232 17.577 341.07 16.275C337.97 14.911 334.529 14.229 330.747 14.229C328.825 14.229 327.275 14.415 326.096 14.787C324.918 15.159 324.051 15.686 323.493 16.368C322.997 16.988 322.749 17.701 322.749 18.507C322.749 19.499 323.337 20.305 324.516 20.925C325.755 21.545 327.461 22.103 329.631 22.599L338.931 24.738C345.131 26.164 349.75 28.272 352.788 31.062C355.826 33.79 357.345 37.541 357.345 42.315C357.345 46.965 356.167 50.84 353.811 53.94C351.517 57.04 348.355 59.365 344.325 60.915C340.295 62.465 335.738 63.24 330.654 63.24C326.624 63.24 322.686 62.837 318.842 62.031C315.06 61.225 311.589 60.078 308.427 58.59C305.265 57.04 302.537 55.211 300.243 53.103L308.427 40.548C310.101 42.16 312.147 43.617 314.565 44.919C316.983 46.159 319.556 47.151 322.284 47.895C325.012 48.639 327.647 49.011 330.189 49.011C331.987 49.011 333.444 48.856 334.56 48.546C335.738 48.174 336.574 47.678 337.07 47.058C337.566 46.438 337.815 45.694 337.815 44.826C337.815 43.772 337.411 42.935 336.605 42.315C335.799 41.633 334.281 41.044 332.049 40.548L321.819 38.223C318.471 37.479 315.371 36.456 312.519 35.154C309.667 33.852 307.372 32.054 305.637 29.76C303.962 27.404 303.126 24.335 303.126 20.553C303.126 16.523 304.211 12.958 306.381 9.858C308.551 6.758 311.713 4.34 315.867 2.604C320.021 0.867999 325.012 0 330.84 0Z" fill="black"/>
<path d="M416.827 0.929999V15.159H397.297V62.31H378.325V15.159H358.609V0.929999H416.827Z" fill="black"/>
<path d="M421.84 62.31V0.929999H471.316V15.159H440.812V25.11H465.178V38.316H440.812V48.081H472.525V62.31H421.84Z" fill="black"/>
<path d="M552.685 0.929999V62.31H535.944V37.758L536.316 17.949H536.13L522.646 62.31H507.393L494.094 17.949H493.815L494.188 37.758V62.31H477.447V0.929999H504.231L512.508 30.039L515.577 42.222H515.763L518.832 30.039L527.109 0.929999H552.685Z" fill="black"/>
<path d="M586.6 0C592.428 0 597.605 0.805999 602.131 2.418C606.657 3.968 610.625 6.355 614.035 9.579L605.758 21.762C602.968 19.406 599.992 17.577 596.83 16.275C593.73 14.911 590.289 14.229 586.507 14.229C584.585 14.229 583.035 14.415 581.857 14.787C580.679 15.159 579.811 15.686 579.253 16.368C578.757 16.988 578.509 17.701 578.509 18.507C578.509 19.499 579.098 20.305 580.276 20.925C581.516 21.545 583.221 22.103 585.391 22.599L594.691 24.738C600.891 26.164 605.51 28.272 608.548 31.062C611.586 33.79 613.105 37.541 613.105 42.315C613.105 46.965 611.927 50.84 609.571 53.94C607.277 57.04 604.115 59.365 600.085 60.915C596.055 62.465 591.498 63.24 586.414 63.24C582.384 63.24 578.447 62.837 574.603 62.031C570.821 61.225 567.349 60.078 564.187 58.59C561.025 57.04 558.297 55.211 556.003 53.103L564.187 40.548C565.861 42.16 567.907 43.617 570.325 44.919C572.743 46.159 575.316 47.151 578.044 47.895C580.772 48.639 583.407 49.011 585.949 49.011C587.747 49.011 589.204 48.856 590.32 48.546C591.498 48.174 592.335 47.678 592.831 47.058C593.327 46.438 593.575 45.694 593.575 44.826C593.575 43.772 593.172 42.935 592.366 42.315C591.56 41.633 590.041 41.044 587.809 40.548L577.579 38.223C574.231 37.479 571.131 36.456 568.279 35.154C565.427 33.852 563.133 32.054 561.397 29.76C559.723 27.404 558.886 24.335 558.886 20.553C558.886 16.523 559.971 12.958 562.141 9.858C564.311 6.758 567.473 4.34 571.627 2.604C575.781 0.867999 580.772 0 586.6 0Z" fill="black"/>
<path d="M666.214 63.24C660.82 63.24 656.015 62.062 651.799 59.706C647.583 57.35 644.266 53.816 641.848 49.104C639.43 44.392 638.221 38.626 638.221 31.806C638.221 25.11 639.461 19.406 641.941 14.694C644.483 9.92 648.11 6.293 652.822 3.813C657.534 1.271 663.114 0 669.562 0C676.816 0 682.644 1.302 687.046 3.906C691.51 6.51 694.951 10.633 697.369 16.275L679.699 22.878C679.079 19.84 677.901 17.701 676.165 16.461C674.429 15.159 672.259 14.508 669.655 14.508C666.989 14.508 664.757 15.159 662.959 16.461C661.223 17.701 659.921 19.592 659.053 22.134C658.185 24.676 657.751 27.838 657.751 31.62C657.751 35.712 658.216 39.06 659.146 41.664C660.138 44.268 661.626 46.19 663.61 47.43C665.594 48.608 668.043 49.197 670.957 49.197C672.445 49.197 673.809 49.042 675.049 48.732C676.289 48.36 677.374 47.833 678.304 47.151C679.296 46.469 680.04 45.632 680.536 44.64C681.032 43.586 681.28 42.377 681.28 41.013V40.548H669.19V28.365H697.276V62.31H684.535L683.047 46.779L686.023 49.755C684.907 54.095 682.675 57.443 679.327 59.799C675.979 62.093 671.608 63.24 666.214 63.24Z" fill="black"/>
<path d="M733.33 0C739.716 0 745.172 1.271 749.698 3.813C754.286 6.293 757.789 9.889 760.207 14.601C762.687 19.313 763.927 24.986 763.927 31.62C763.927 38.254 762.687 43.927 760.207 48.639C757.789 53.351 754.286 56.978 749.698 59.52C745.172 62 739.716 63.24 733.33 63.24C727.006 63.24 721.519 62 716.869 59.52C712.281 56.978 708.747 53.351 706.267 48.639C703.787 43.927 702.547 38.254 702.547 31.62C702.547 24.986 703.787 19.313 706.267 14.601C708.747 9.889 712.281 6.293 716.869 3.813C721.519 1.271 727.006 0 733.33 0ZM733.33 14.508C730.788 14.508 728.68 15.159 727.006 16.461C725.394 17.701 724.154 19.561 723.286 22.041C722.48 24.521 722.077 27.714 722.077 31.62C722.077 35.464 722.48 38.657 723.286 41.199C724.154 43.679 725.394 45.57 727.006 46.872C728.68 48.112 730.788 48.732 733.33 48.732C735.81 48.732 737.887 48.112 739.561 46.872C741.235 45.57 742.475 43.679 743.281 41.199C744.087 38.657 744.49 35.464 744.49 31.62C744.49 27.714 744.087 24.521 743.281 22.041C742.475 19.561 741.235 17.701 739.561 16.461C737.887 15.159 735.81 14.508 733.33 14.508Z" fill="black"/>
<path d="M765.943 62.51C774.043 62.51 780.543 56.01 780.543 47.91C780.543 39.81 773.943 33.31 765.943 33.31C757.843 33.31 751.343 39.81 751.343 47.91C751.243 56.01 757.843 62.51 765.943 62.51Z" fill="#E6007A"/>
</svg>
